<svg width="220" height="164" viewBox="0 0 220 164" fill="none" xmlns="http://www.w3.org/2000/svg">
<path fill-rule="evenodd" clip-rule="evenodd" d="M27.242 181.714C13.4179 161.369 53.828 140.317 49.5712 116.6C46.2248 97.9562 16.3394 94.1125 8.37746 76.6107C0.205236 58.6466 -3.82126 35.589 5.4149 19.5369C14.6642 3.46195 35.8447 -4.88662 54.89 -4.22661C74.8122 -3.53621 91.6549 30.8495 109.435 23.1417C134.984 12.0662 124.727 -46.2862 153.245 -46.8634C177.103 -47.3462 165.2 1.39628 179.769 21.7183C188.954 34.5305 220.44 30.5142 219.568 45.6507C218.269 68.2286 187.087 74.3819 175.661 93.0716C171.951 99.139 174.368 107.983 177.157 115.02C185.103 135.067 217.49 154.693 206.941 171.993C197.468 187.527 169.867 164.1 152.894 154.809C141.979 148.834 137.852 124.109 126.835 128.144C107.414 135.258 109.059 167.757 90.9493 177.498C72.4437 187.452 39.9513 200.419 27.242 181.714Z" fill="#017A75" fill-opacity="0.5"/>
</svg>
