<svg width="497" height="598" viewBox="0 0 497 598" fill="none" xmlns="http://www.w3.org/2000/svg">
<path fill-rule="evenodd" clip-rule="evenodd" d="M155.945 -83.8625C223.411 -86.9235 293.556 -77.9932 350.639 -45.691C407.111 -13.7349 444.04 39.2175 470.224 93.9817C494.773 145.327 498.054 201.206 495.303 256.876C492.618 311.2 477.308 362.585 454.459 412.966C428.435 470.348 411.004 537.634 352.687 571.338C293.957 605.281 216.465 599.813 147.056 590.63C82.7858 582.127 28.3758 549.867 -27.9649 520.977C-85.0857 491.687 -148.011 468.014 -185.797 419.952C-225.195 369.839 -246.72 308.113 -243.25 247.142C-239.834 187.101 -205.44 132.796 -166.663 83.6482C-129.798 36.9261 -81.1052 0.164845 -25.6747 -28.6169C30.5154 -57.793 90.8861 -80.9106 155.945 -83.8625Z" fill="#017A75" fill-opacity="0.5"/>
</svg>
